<svg xmlns="http://www.w3.org/2000/svg" viewBox="0 0 700 210"><defs>
<linearGradient id="body" x2="0" y2="1"><stop stop-color="#171b20"/><stop offset=".4" stop-color="#080b0e"/><stop offset=".75" stop-color="#101317"/><stop offset="1" stop-color="#020304"/></linearGradient>
<radialGradient id="top"><stop stop-color="#3b1015"/><stop offset=".35" stop-color="#0d080b"/><stop offset=".85" stop-color="#131014"/><stop offset="1" stop-color="#030405"/></radialGradient>
<radialGradient id="light"><stop stop-color="#ffd5cd"/><stop offset=".12" stop-color="#ff5358"/><stop offset=".4" stop-color="#f51d37" stop-opacity=".65"/><stop offset="1" stop-color="#f51d37" stop-opacity="0"/></radialGradient>
</defs><path d="M35 97 Q12 124 30 156 Q85 203 350 208 Q615 203 670 156 Q688 124 665 97Z" fill="url(#body)" stroke="#29252a" stroke-width="2"/>
<path d="M35 127 Q115 187 350 184 Q585 187 665 127M26 149 Q120 204 350 199 Q585 204 674 149" fill="none" stroke="#303136" stroke-width="2"/>
<path d="M60 147 Q157 188 298 184M402 184 Q543 188 640 147" fill="none" stroke="#7e1927" stroke-width="2"/>
<ellipse cx="350" cy="101" rx="320" ry="87" fill="url(#body)" stroke="#353136" stroke-width="2"/>
<ellipse cx="350" cy="94" rx="300" ry="76" fill="url(#top)" stroke="#58131e" stroke-width="1.3"/>
<ellipse cx="350" cy="93" rx="270" ry="63" fill="none" stroke="#c52b3c" stroke-width="1.3"/>
<ellipse cx="350" cy="93" rx="260" ry="58" fill="none" stroke="#812031" stroke-width=".7"/>
<ellipse cx="350" cy="92" rx="219" ry="48" fill="none" stroke="#621426" stroke-dasharray="35 14 6 6" stroke-width="2"/>
<ellipse cx="350" cy="92" rx="180" ry="38" fill="none" stroke="#e0354b" stroke-width=".8"/>
<ellipse cx="350" cy="92" rx="172" ry="34" fill="none" stroke="#701322" stroke-width=".8"/>
<ellipse cx="350" cy="92" rx="125" ry="28" fill="none" stroke="#7f2232" stroke-dasharray="30 5 3 6" stroke-width="1.5"/>
<ellipse cx="350" cy="92" rx="85" ry="20" fill="none" stroke="#eb394a" stroke-width="1.2"/>
<ellipse cx="350" cy="92" rx="67" ry="14" fill="none" stroke="#f45c63" stroke-width=".7"/>
<path d="M636.0 94.0 643.0 94.0" stroke="#e4484e" stroke-width="2"/><path d="M634.6 100.8 641.6 101.1" stroke="#77323a" stroke-width="1"/><path d="M630.5 107.5 637.4 108.0" stroke="#77323a" stroke-width="1"/><path d="M623.7 114.0 630.4 114.9" stroke="#77323a" stroke-width="1"/><path d="M614.2 120.4 620.7 121.6" stroke="#e4484e" stroke-width="2"/><path d="M602.2 126.5 608.4 127.9" stroke="#77323a" stroke-width="1"/><path d="M587.8 132.3 593.6 134.0" stroke="#77323a" stroke-width="1"/><path d="M571.1 137.8 576.5 139.7" stroke="#77323a" stroke-width="1"/><path d="M552.2 142.8 557.2 144.9" stroke="#e4484e" stroke-width="2"/><path d="M531.4 147.3 535.9 149.7" stroke="#77323a" stroke-width="1"/><path d="M508.9 151.4 512.8 153.9" stroke="#77323a" stroke-width="1"/><path d="M484.8 154.9 488.1 157.5" stroke="#77323a" stroke-width="1"/><path d="M459.4 157.7 462.1 160.5" stroke="#e4484e" stroke-width="2"/><path d="M433.0 160.0 435.1 162.9" stroke="#77323a" stroke-width="1"/><path d="M405.8 161.7 407.2 164.6" stroke="#77323a" stroke-width="1"/><path d="M378.0 162.7 378.7 165.7" stroke="#77323a" stroke-width="1"/><path d="M350.0 163.0 350.0 166.0" stroke="#e4484e" stroke-width="2"/><path d="M322.0 162.7 321.3 165.7" stroke="#77323a" stroke-width="1"/><path d="M294.2 161.7 292.8 164.6" stroke="#77323a" stroke-width="1"/><path d="M267.0 160.0 264.9 162.9" stroke="#77323a" stroke-width="1"/><path d="M240.6 157.7 237.9 160.5" stroke="#e4484e" stroke-width="2"/><path d="M215.2 154.9 211.9 157.5" stroke="#77323a" stroke-width="1"/><path d="M191.1 151.4 187.2 153.9" stroke="#77323a" stroke-width="1"/><path d="M168.6 147.3 164.1 149.7" stroke="#77323a" stroke-width="1"/><path d="M147.8 142.8 142.8 144.9" stroke="#e4484e" stroke-width="2"/><path d="M128.9 137.8 123.5 139.7" stroke="#77323a" stroke-width="1"/><path d="M112.2 132.3 106.4 134.0" stroke="#77323a" stroke-width="1"/><path d="M97.8 126.5 91.6 127.9" stroke="#77323a" stroke-width="1"/><path d="M85.8 120.4 79.3 121.6" stroke="#e4484e" stroke-width="2"/><path d="M76.3 114.0 69.6 114.9" stroke="#77323a" stroke-width="1"/><path d="M69.5 107.5 62.6 108.0" stroke="#77323a" stroke-width="1"/><path d="M65.4 100.8 58.4 101.1" stroke="#77323a" stroke-width="1"/><path d="M64.0 94.0 57.0 94.0" stroke="#e4484e" stroke-width="2"/><path d="M65.4 87.2 58.4 86.9" stroke="#77323a" stroke-width="1"/><path d="M69.5 80.5 62.6 80.0" stroke="#77323a" stroke-width="1"/><path d="M76.3 74.0 69.6 73.1" stroke="#77323a" stroke-width="1"/><path d="M85.8 67.6 79.3 66.4" stroke="#e4484e" stroke-width="2"/><path d="M97.8 61.5 91.6 60.1" stroke="#77323a" stroke-width="1"/><path d="M112.2 55.7 106.4 54.0" stroke="#77323a" stroke-width="1"/><path d="M128.9 50.2 123.5 48.3" stroke="#77323a" stroke-width="1"/><path d="M147.8 45.2 142.8 43.1" stroke="#e4484e" stroke-width="2"/><path d="M168.6 40.7 164.1 38.3" stroke="#77323a" stroke-width="1"/><path d="M191.1 36.6 187.2 34.1" stroke="#77323a" stroke-width="1"/><path d="M215.2 33.1 211.9 30.5" stroke="#77323a" stroke-width="1"/><path d="M240.6 30.3 237.9 27.5" stroke="#e4484e" stroke-width="2"/><path d="M267.0 28.0 264.9 25.1" stroke="#77323a" stroke-width="1"/><path d="M294.2 26.3 292.8 23.4" stroke="#77323a" stroke-width="1"/><path d="M322.0 25.3 321.3 22.3" stroke="#77323a" stroke-width="1"/><path d="M350.0 25.0 350.0 22.0" stroke="#e4484e" stroke-width="2"/><path d="M378.0 25.3 378.7 22.3" stroke="#77323a" stroke-width="1"/><path d="M405.8 26.3 407.2 23.4" stroke="#77323a" stroke-width="1"/><path d="M433.0 28.0 435.1 25.1" stroke="#77323a" stroke-width="1"/><path d="M459.4 30.3 462.1 27.5" stroke="#e4484e" stroke-width="2"/><path d="M484.8 33.1 488.1 30.5" stroke="#77323a" stroke-width="1"/><path d="M508.9 36.6 512.8 34.1" stroke="#77323a" stroke-width="1"/><path d="M531.4 40.7 535.9 38.3" stroke="#77323a" stroke-width="1"/><path d="M552.2 45.2 557.2 43.1" stroke="#e4484e" stroke-width="2"/><path d="M571.1 50.2 576.5 48.3" stroke="#77323a" stroke-width="1"/><path d="M587.8 55.7 593.6 54.0" stroke="#77323a" stroke-width="1"/><path d="M602.2 61.5 608.4 60.1" stroke="#77323a" stroke-width="1"/><path d="M614.2 67.6 620.7 66.4" stroke="#e4484e" stroke-width="2"/><path d="M623.7 74.0 630.4 73.1" stroke="#77323a" stroke-width="1"/><path d="M630.5 80.5 637.4 80.0" stroke="#77323a" stroke-width="1"/><path d="M634.6 87.2 641.6 86.9" stroke="#77323a" stroke-width="1"/><path d="M636.1 115.5l-5 22h20l5-22Z" fill="#0a0a0d" stroke="#303037" stroke-width="1.3"/><path d="M641.1 122.5h9" stroke="#ab2439" stroke-width="2"/><path d="M621.3 130.1l-5 22h20l5-22Z" fill="#0a0a0d" stroke="#303037" stroke-width="1.3"/><path d="M626.3 137.1h9" stroke="#ab2439" stroke-width="2"/><path d="M592.3 143.6l-5 22h20l5-22Z" fill="#0a0a0d" stroke="#303037" stroke-width="1.3"/><path d="M597.3 150.6h9" stroke="#ab2439" stroke-width="2"/><path d="M550.7 155.4l-5 22h20l5-22Z" fill="#0a0a0d" stroke="#303037" stroke-width="1.3"/><path d="M555.7 162.4h9" stroke="#ab2439" stroke-width="2"/><path d="M498.5 164.7l-5 22h20l5-22Z" fill="#0a0a0d" stroke="#303037" stroke-width="1.3"/><path d="M503.5 171.7h9" stroke="#ab2439" stroke-width="2"/><path d="M438.4 171.2l-5 22h20l5-22Z" fill="#0a0a0d" stroke="#303037" stroke-width="1.3"/><path d="M443.4 178.2h9" stroke="#ab2439" stroke-width="2"/><path d="M373.4 174.6l-5 22h20l5-22Z" fill="#0a0a0d" stroke="#303037" stroke-width="1.3"/><path d="M378.4 181.6h9" stroke="#ab2439" stroke-width="2"/><path d="M306.6 174.6l-5 22h20l5-22Z" fill="#0a0a0d" stroke="#303037" stroke-width="1.3"/><path d="M311.6 181.6h9" stroke="#ab2439" stroke-width="2"/><path d="M241.6 171.2l-5 22h20l5-22Z" fill="#0a0a0d" stroke="#303037" stroke-width="1.3"/><path d="M246.6 178.2h9" stroke="#ab2439" stroke-width="2"/><path d="M181.5 164.7l-5 22h20l5-22Z" fill="#0a0a0d" stroke="#303037" stroke-width="1.3"/><path d="M186.5 171.7h9" stroke="#ab2439" stroke-width="2"/><path d="M129.3 155.4l-5 22h20l5-22Z" fill="#0a0a0d" stroke="#303037" stroke-width="1.3"/><path d="M134.3 162.4h9" stroke="#ab2439" stroke-width="2"/><path d="M87.7 143.6l-5 22h20l5-22Z" fill="#0a0a0d" stroke="#303037" stroke-width="1.3"/><path d="M92.7 150.6h9" stroke="#ab2439" stroke-width="2"/><path d="M58.7 130.1l-5 22h20l5-22Z" fill="#0a0a0d" stroke="#303037" stroke-width="1.3"/><path d="M63.7 137.1h9" stroke="#ab2439" stroke-width="2"/><path d="M43.9 115.5l-5 22h20l5-22Z" fill="#0a0a0d" stroke="#303037" stroke-width="1.3"/><path d="M48.9 122.5h9" stroke="#ab2439" stroke-width="2"/><ellipse cx="350" cy="90" rx="125" ry="37" fill="url(#light)"/><path d="M225 90h250" stroke="#ff9d96" stroke-width=".7" opacity=".8"/><circle cx="350" cy="90" r="3" fill="#fff4e8"/></svg>